# xmcd
#
# Track frame offsets:
#	182
#	10160
#	19505
#	30890
#	41682
#	54220
#	64702
#	74332
#	83932
#	95590
#	107117
#	117297
#	128710
#	141312
#	150530
#	162700
#	172830
#	184207
#	195072
#	207107
#	217312
#	227185
#	237622
#	249822
#	260637
#	272855
#	285555
#	296652
#
# Disc length: 4107 seconds
#
# Revision: 0
# Processed by: cddbd v1.5.1PL2 Copyright (c) Steve Scherf et al.
# Submitted via: dBpowerAMP V4.0
#
DISCID=9210091c
DTITLE=Various Artist - Jubilee and Josie R&B Vocal Groups
DYEAR=1900
DGENRE=
TTITLE0=Cruise to the Moon -  Chaperones
TTITLE1=Teenage Paradise - Volumes
TTITLE2=Night and Day -  Orioles
TTITLE3=Crazy Love - Bob Knight Four
TTITLE4=Dancing Alone - The Emeralds
TTITLE5=This I Swear -  Dubs
TTITLE6=Our Wedding Day -  Shells
TTITLE7=Lonely Road - Passions
TTITLE8=School Bells to Chapel Bells -  Styles
TTITLE9=Shangri-La - Parakeets
TTITLE10=Elaine - Glenwoods
TTITLE11=Shimmy Time - Orioles
TTITLE12=If You Love Me (Really Love Me) - Jordan and Fascinations
TTITLE13=Who Needs Love - Ovations
TTITLE14=Two Friends - Bob Knight Four
TTITLE15=Man From the Moon - Chaperones
TTITLE16=Wisdom of a Fool - Dubs
TTITLE17=Sandra - Volumes
TTITLE18=That's the Way It'll Be - Glenwoods
TTITLE19=(I Love You) For Sentimental Reasons - Styles
TTITLE20=Deep in My Heart - Shells
TTITLE21=Memories - Bob Knight Four
TTITLE22=Did You Ever Love a Guy - Emeralds
TTITLE23=Shining Star -  Chaperones
TTITLE24=Remembering -  Ovations
TTITLE25=Far From Your Love - Appreciations
TTITLE26=Our Song - Volumes
TTITLE27=So Long - Sonny Til and Orioles
EXTD=Jubilee and Josie R&B Vocal Groups
EXTT0=
EXTT1=
EXTT2=
EXTT3=
EXTT4=
EXTT5=
EXTT6=
EXTT7=
EXTT8=
EXTT9=
EXTT10=
EXTT11=
EXTT12=
EXTT13=
EXTT14=
EXTT15=
EXTT16=
EXTT17=
EXTT18=
EXTT19=
EXTT20=
EXTT21=
EXTT22=
EXTT23=
EXTT24=
EXTT25=
EXTT26=
EXTT27=
PLAYORDER=
